<svg xmlns="http://www.w3.org/2000/svg" xmlns:xlink="http://www.w3.org/1999/xlink" viewBox="202 0 397.8 519.1">
  <path fill="#FFD9D3" d="M424.4 511.1c-17.6 1.8-20.3 2-37.9 0-4.9-.1-17.6-8.2-19.6-13.6-39.9-11.5-61-25.8-79.9-49.5-11.8-14.8-30-34-32.8-61.5l7.8.3c-.3-18.4.2-36.3 6.4-52.8-23.1-54.6-25.2-100.2 4.2-132.4a829.5 829.5 0 00136.1 20.2c51-1.2 95.7-7.2 131.7-20.2 29.5 43.6 27.2 85.5 3.2 126.1a301 301 0 019.2 59.4l6.9-.5a117.4 117.4 0 01-34.9 62.2c-19.1 19.6-41.4 35.6-80.9 48.5-7.3 8.8-8.7 10.2-19.5 13.8z"/>
  <defs>
    <path id="a" d="M423.9 511.1c-17.6 1.8-20.3 2-37.9 0-4.9-.1-17.6-8.2-19.6-13.6-39.9-11.5-60.9-25.8-79.9-49.5-11.8-14.8-30-34-32.8-61.5l7.8.3c-.3-18.4.2-36.3 6.4-52.8-23.1-54.6-25.2-100.2 4.2-132.4a829.5 829.5 0 00136.1 20.2c51-1.2 95.7-7.2 131.7-20.2 29.5 43.6 27.2 85.5 3.2 126.1a301 301 0 019.2 59.4l6.9-.5a117.4 117.4 0 01-34.9 62.2c-19.1 19.6-41.4 35.6-80.9 48.5-7.3 8.8-8.7 10.2-19.5 13.8z"/>
  </defs>
  <clipPath id="b">
    <use overflow="visible" xlink:href="#a"/>
  </clipPath>
  <path fill="#0D1200" d="M261.1 386.9l18.1 39.3 75.2 29.6a38.7 38.7 0 0112-18.2l41.3-7.6 22.7 2.4 26.2 3.8 9.3 20.6 65.7-26.9 20.3-42.7 7.1-.5a78.7 78.7 0 01-16.9 49.9c-17.9 23.4-46.6 53-81 60.3-2.2.4-8.1 9-9.8 10.8-4.6 5.1-12.6 5.9-20 7-30.4 1.8-26.7 5.6-46.8 3.8l-7.8-.5c-1.3-.2-10-.2-14.5-2.8-4.8-2.8-19.3-5.6-21-9-16.8-2.1-16.2-24.8-29.9-30.6-30.9-12.9-52.9-39.4-58.1-88.9l7.3.3" clip-path="url(#b)" opacity=".1"/>
  <g fill="#B3B3B3" opacity=".4">
    <path d="M279.5 426.2l73.8 19.2 1.2 4.8.4 5.5zM467.3 445.5l64.7-15.6-65.7 26.8-.6-6.5 1.6-4.7"/>
  </g>
  <path fill="#420606" d="M393.5 456.2a55 55 0 0113.8 14.3c4.9-5.4 10.1-10 15.7-13.6a44 44 0 01-29.5-.7"/>
  <linearGradient id="c" x1="54.9" x2="54.9" y1="174.9" y2="174.9" gradientTransform="translate(206.5 5.7) scale(2.7523)" gradientUnits="userSpaceOnUse">
    <stop offset="0" stop-color="#8c6a36"/>
    <stop offset=".5" stop-color="#83622f"/>
    <stop offset="1" stop-color="#775826"/>
  </linearGradient>
  <path fill="#E8109B" d="M381.4 441c17.9 4.3 37.2 4.8 56.9 0-4.6 22.7-51.5 25.6-56.9 0z" opacity=".2"/>
  <path fill="#2D2D2D" d="M381.4 442.8a83.5 83.5 0 0056.9 0c-10.3 16.6-46.8 16.9-56.9 0z"/>
  <path fill="#FFF" d="M390.9 445.7c6.5 1.1 29.8 1.4 36.9.2-3.5 8.4-35.3 8.1-36.9-.2z"/>
  <g>
    <path fill="#420606" d="M353.3 445.4c-.1 2.1-.3 9.8 1.5 10.3.4.1 3.7-6.5 4.6-7.5l.4-.4c1.8-2.1 4.7-3.1 9.3-3.3 2.2-.2 4.6 0 7 .1 2.5.1 5.1.2 7.6.1h.2a70 70 0 0022.6-4.2l2.5-1.4 2.1-1.1 1.4 1 1.1.7a63 63 0 0025 4.9c2.2.1 4.7 0 7.2-.1a97 97 0 017.6-.1c3.2.2 5.6.7 7.2 1.6.4.2 1.7 2.2 1.9 3 .4 1.3 3.1 7.9 4 7.8.7-.2.9-2.7 1.4-7.2.2-1.8.3-4.7.2-6.8 0-2.4-.6-4.9-2-6.8a17.2 17.2 0 00-3.4-3.9c-2.8-2-6.6-2.4-10.7-2.8l-2.8-.3c-2.9-.4-29.2-3.3-31.2-3.4a11 11 0 01-7-3.6c-1 .9-3.1 3.3-7.3 3.4-8 .2-27.9 3.3-30.9 3.6l-3.1.3c-2.7.2-5.4.4-7.6 1.3-5.3 1.8-8.6 7.4-8.8 14.8z"/>
  </g>
  <g>
    <path fill="#88694F" d="M431.2 395.7c-6.8 19.2-36.9 19.8-40.4 0 .7 17.3 31.5 26 40.4 0z"/>
  </g>
  <g>
    <path fill="#42210B" d="M392.8 303L382 322.1c-27.3-15-56.1-16.6-80.8 0l-12.6-20.9c33-24.3 65-23.8 104.2 1.8z"/>
  </g>
  <g>
    <path fill="#42210B" d="M420.7 303l10.8 19.1c27.3-15 56.1-16.6 80.8 0l12.6-20.9c-33.2-24.3-65.1-23.8-104.2 1.8z"/>
  </g>
  <g>
    <path fill="#FAD1CB" d="M451.3 323.3a38.6 38.6 0 0123.3-6.9c3.8.4 7.5.9 10.7 1.8 15.4 4.5 18.9 22.6 6.6 32.1a27.5 27.5 0 01-21 5.8c-12-1.1-11.9-1-15.7-2.9-12.6-5.9-14.7-21.7-3.9-29.9z"/>
    <path fill="#E5B397" d="M446.9 342.2c-.1-.9-1.2-.5-1-1.4 2.1-11 16.4-17.6 26.2-18.2 12.2.4 27.3 14.2 25.2 19.2-.4 1.1-2.2.3-3.6.3l-46.7.4"/>
    <path fill="#F2F2F3" d="M446 341.8a2 2 0 01.1-1.7c4.2-8.4 18.3-13.9 24.3-13.9a34 34 0 0126.1 12c1.1 1.3 1.3 3.1.4 4.3a35.8 35.8 0 01-24.6 12.9c-9.7.2-24.2-8.9-26.3-13.6z"/>
    <path fill="#603813" d="M477.3 331.7c3.1 1.4 4.2 2.7 5.6 5.7 1.1 2.5 1.1 5.4 0 8a9.3 9.3 0 01-5.3 5.5 12.8 12.8 0 01-11.6-.2c-2.1-1.1-3.1-2.3-4.3-4.8a11.1 11.1 0 01-.2-9.1c1.3-2.7 2.4-4 5.2-5.2 3.2-1.5 7.3-1.5 10.6.1z"/>
    <path fill="#42210B" d="M473.9 337.4c1.2.5 1.5 1.1 2.1 2.3.4 1.1.4 2.2 0 3.2-.4 1.1-.8 1.6-2 2.2-1.3.7-3.1.7-4.3-.1-.8-.4-1.2-.9-1.6-1.9a5.8 5.8 0 01-.1-3.7c.4-1.1.9-1.6 1.9-2.1a5 5 0 014 .1z"/>
  </g>
  <g>
    <path fill="#FAD1CB" d="M362.5 323.8a38.6 38.6 0 00-23.3-6.9c-3.8.4-7.5.9-10.7 1.8-15.4 4.5-18.9 22.6-6.6 32.1a27.5 27.5 0 0021 5.8c12-1.1 11.9-1 15.7-2.9 12.5-5.9 14.7-21.6 3.9-29.9z"/>
    <path fill="#E5B397" d="M366.8 342.9c.1-.9 1.2-.5 1-1.4-2.1-11-16.4-17.6-26.2-18.2-12.2.4-27.3 14.2-25.2 19.2.4 1.1 2.2.3 3.6.3l46.7.4"/>
    <path fill="#F2F2F3" d="M367.7 342.4a2 2 0 00-.1-1.7c-4.2-8.4-18.3-13.9-24.3-13.9a34 34 0 00-26.1 12c-1.1 1.3-1.3 3.1-.4 4.3a35.8 35.8 0 0024.6 12.9c9.8.3 24.4-8.9 26.3-13.6z"/>
    <path fill="#603813" d="M337 332.3c-3.1 1.4-4.1 2.7-5.4 5.7a10.1 10.1 0 000 8c1.2 2.8 2.2 4 5.1 5.5a12 12 0 0011.2-.2c2.1-1.1 3.1-2.3 4.2-4.8 1.4-2.9 1.4-6.2.2-9.1-1.2-2.7-2.3-4-5-5.2a12 12 0 00-10.3.1z"/>
    <path fill="#42210B" d="M339.9 338c-1.2.5-1.5 1.1-2.1 2.3-.4 1.1-.4 2.2 0 3.2s.8 1.6 2 2.2c1.3.7 3.1.7 4.3-.1.8-.4 1.2-.9 1.6-1.9.4-1.2.5-2.4.1-3.7a3.3 3.3 0 00-1.9-2.1 5 5 0 00-4 .1z"/>
  </g>
  <path fill="#281E0D" d="M572.3 145.2c-7.7-40.1-25.6-68.8-54.6-84.9l-2.1 4.6a61 61 0 00-47.1-35.8l.9 8.4c-8.3-12.5-31.3-21.1-57.5-26l1.1 7.2a94.4 94.4 0 00-66.5-11.1c3.8 4.7 4.1 9.8 2.3 15.2-2.2 5.4-5.4 10-9.6 13.8-99.5 41.5-122.8 94.7-123.8 151.4-14.3 29.7-10.3 72.5 7.7 125.7a662.5 662.5 0 0030.8 73l7.8.3c.4-19.1-.1-37.3 6.4-52.8-21.5-50-27.6-96.1 4.2-132.5-3.3 5.2 1 9.1 3.6 18.8.1.5.8.6 1.1.2 6.3-9.7 11.1-11.3 19.8-11.8-2.2 7.4-1.6 10.6 3.7 21.6.2.4.7.4 1 .1 7.7-11.2 11.7-13.4 23.8-12.6.3 5.3.3 14.6 7.8 23.2.2.3.7.3.9 0 5.8-7.8 18.3-16.5 60.9-20.1h-.1l13.5.9c47.3-.4 91.4-6.7 131.6-20.2 28.7 41.3 28.2 83.3 3.1 126.1a306 306 0 019.1 59.4l6.8-.5h.4c9.4-22.7 10.2-46.9 19.1-67.2 28.8-65.6 30-131.5-6.1-174.4z"/>
</svg>
